<svg width="1210" height="1080" viewBox="0 0 1210 1080" fill="none" xmlns="http://www.w3.org/2000/svg">
<mask id="mask0" mask-type="alpha" maskUnits="userSpaceOnUse" x="0" y="-36" width="1314" height="1155">
<path d="M321.5 754C316 1020.5 173.5 741.5 80.5 880C20.8333 975 -62.7 1154.4 80.5 1112H1313.5V-35H1037.5C1019.83 62.5 949.4 260.7 809 273.5C633.5 289.5 612 87.5 500.5 160.5C389 233.5 444 383.5 612 405C743.5 443.5 710.6 615.3 623 666.5C563 701.5 327 487.5 321.5 754Z" fill="#C4C4C4"/>
<path d="M321.5 754C316 1020.5 173.5 741.5 80.5 880C20.8333 975 -62.7 1154.4 80.5 1112H1313.5V-35H1037.5C1019.83 62.5 949.4 260.7 809 273.5C633.5 289.5 612 87.5 500.5 160.5C389 233.5 444 383.5 612 405C743.5 443.5 710.6 615.3 623 666.5C563 701.5 327 487.5 321.5 754Z" stroke="black"/>
<path d="M321.5 754C316 1020.5 173.5 741.5 80.5 880C20.8333 975 -62.7 1154.4 80.5 1112H1313.5V-35H1037.5C1019.83 62.5 949.4 260.7 809 273.5C633.5 289.5 612 87.5 500.5 160.5C389 233.5 444 383.5 612 405C743.5 443.5 710.6 615.3 623 666.5C563 701.5 327 487.5 321.5 754Z" stroke="url(#paint0_linear)"/>
</mask>
<g mask="url(#mask0)">
<path d="M-575 -79H1220V1167H-575V-79Z" fill="#2793AB"/>
<ellipse cx="103" cy="1013" rx="317" ry="105" fill="#3C778A"/>
<ellipse cx="1168.5" cy="117.5" rx="111.5" ry="342.5" fill="#3C778A"/>
<ellipse rx="110.5" ry="95.5" transform="matrix(-1 0 0 1 656.5 477.5)" fill="#007499"/>
</g>
<defs>
<linearGradient id="paint0_linear" x1="657.466" y1="-35" x2="657.466" y2="1118.38" gradientUnits="userSpaceOnUse">
<stop stop-color="white"/>
<stop offset="1" stop-color="white" stop-opacity="0"/>
</linearGradient>
</defs>
</svg>
